<svg width="57" height="57" viewBox="0 0 57 57" fill="none" xmlns="http://www.w3.org/2000/svg">
<path d="M50.7656 28.5C50.7656 24.0964 49.4598 19.7917 47.0134 16.1301C44.5669 12.4686 41.0896 9.61479 37.0213 7.92949C32.9529 6.24418 28.4761 5.80311 24.1571 6.66203C19.8381 7.52096 15.8707 9.64131 12.7567 12.755C9.6427 15.8686 7.52191 19.8358 6.66251 24.1547C5.80311 28.4736 6.2437 32.9504 7.92855 37.019C9.61341 41.0876 12.4669 44.5651 16.1281 47.012C19.7894 49.4589 24.0939 50.7651 28.4976 50.7656L28.5 50.7659L28.5025 50.7656C34.4052 50.7583 40.0641 48.4101 44.2377 44.236C48.4113 40.0619 50.759 34.4028 50.7656 28.5ZM29.3906 48.9639V32.9531H35.625C35.8612 32.9531 36.0878 32.8593 36.2548 32.6923C36.4218 32.5253 36.5156 32.2987 36.5156 32.0625C36.5156 31.8263 36.4218 31.5998 36.2548 31.4327C36.0878 31.2657 35.8612 31.1719 35.625 31.1719H29.3906V24.9375C29.3919 23.7569 29.8615 22.6249 30.6964 21.7901C31.5312 20.9553 32.6631 20.4857 33.8438 20.4844H37.4063C37.6425 20.4844 37.869 20.3906 38.036 20.2235C38.2031 20.0565 38.2969 19.83 38.2969 19.5938C38.2969 19.3576 38.2031 19.131 38.036 18.964C37.869 18.797 37.6425 18.7031 37.4063 18.7031H33.8438C32.1909 18.705 30.6062 19.3624 29.4374 20.5312C28.2686 21.6999 27.6112 23.2846 27.6094 24.9375V31.1719H21.375C21.1388 31.1719 20.9123 31.2657 20.7452 31.4327C20.5782 31.5998 20.4844 31.8263 20.4844 32.0625C20.4844 32.2987 20.5782 32.5253 20.7452 32.6923C20.9123 32.8593 21.1388 32.9531 21.375 32.9531H27.6094V48.9637C22.2588 48.7308 17.2122 46.4117 13.5507 42.5032C9.88919 38.5947 7.90402 33.4076 8.02048 28.0533C8.13693 22.6989 10.3457 17.603 14.1737 13.8574C18.0017 10.1118 23.1444 8.0143 28.5 8.0143C33.8557 8.0143 38.9983 10.1118 42.8263 13.8574C46.6543 17.603 48.8631 22.6989 48.9795 28.0533C49.096 33.4076 47.1108 38.5947 43.4493 42.5032C39.7878 46.4117 34.7412 48.7308 29.3906 48.9637V48.9639Z" fill="#828282"/>
</svg>
