<svg width="57" height="57" viewBox="0 0 57 57" fill="none" xmlns="http://www.w3.org/2000/svg">
<path d="M14.25 9.5H40.375C42.2647 9.5 44.0769 10.2507 45.4131 11.5869C46.7493 12.9231 47.5 14.7353 47.5 16.625V42.75C47.5 44.6397 46.7493 46.4519 45.4131 47.7881C44.0769 49.1243 42.2647 49.875 40.375 49.875H14.25C12.3603 49.875 10.5481 49.1243 9.21186 47.7881C7.87567 46.4519 7.125 44.6397 7.125 42.75V16.625C7.125 14.7353 7.87567 12.9231 9.21186 11.5869C10.5481 10.2507 12.3603 9.5 14.25 9.5ZM14.25 11.875C12.9902 11.875 11.782 12.3754 10.8912 13.2662C10.0004 14.157 9.5 15.3652 9.5 16.625V35.625H21.375V36.8125C21.375 38.3872 22.0006 39.8974 23.1141 41.0109C24.2276 42.1244 25.7378 42.75 27.3125 42.75C28.8872 42.75 30.3974 42.1244 31.5109 41.0109C32.6244 39.8974 33.25 38.3872 33.25 36.8125V35.625H45.125V16.625C45.125 15.3652 44.6246 14.157 43.7338 13.2662C42.843 12.3754 41.6348 11.875 40.375 11.875H14.25ZM9.5 42.75C9.5 44.0098 10.0004 45.218 10.8912 46.1088C11.782 46.9996 12.9902 47.5 14.25 47.5H40.375C41.6348 47.5 42.843 46.9996 43.7338 46.1088C44.6246 45.218 45.125 44.0098 45.125 42.75V38H35.5419C35.2559 39.9786 34.2666 41.788 32.7553 43.0966C31.2439 44.4052 29.3117 45.1255 27.3125 45.1255C25.3133 45.1255 23.3811 44.4052 21.8697 43.0966C20.3584 41.788 19.3691 39.9786 19.0831 38H9.5V42.75Z" fill="#4F4F4F"/>
</svg>
