<svg width="57" height="57" viewBox="0 0 57 57" fill="none" xmlns="http://www.w3.org/2000/svg">
<path d="M27.3124 16.625C28.8872 16.625 30.3974 17.2506 31.5109 18.3641C32.6244 19.4776 33.2499 20.9878 33.2499 22.5625C33.2499 24.1372 32.6244 25.6474 31.5109 26.7609C30.3974 27.8744 28.8872 28.5 27.3124 28.5C25.7377 28.5 24.2275 27.8744 23.114 26.7609C22.0005 25.6474 21.3749 24.1372 21.3749 22.5625C21.3749 20.9878 22.0005 19.4776 23.114 18.3641C24.2275 17.2506 25.7377 16.625 27.3124 16.625ZM27.3124 19C26.3676 19 25.4615 19.3753 24.7934 20.0434C24.1253 20.7115 23.7499 21.6177 23.7499 22.5625C23.7499 23.5073 24.1253 24.4135 24.7934 25.0816C25.4615 25.7497 26.3676 26.125 27.3124 26.125C28.2573 26.125 29.1634 25.7497 29.8315 25.0816C30.4996 24.4135 30.8749 23.5073 30.8749 22.5625C30.8749 21.6177 30.4996 20.7115 29.8315 20.0434C29.1634 19.3753 28.2573 19 27.3124 19ZM16.1499 29.3479L27.3124 47.7066L38.4749 29.3479C39.6788 27.3671 40.3339 25.1017 40.3731 22.7842C40.4122 20.4666 39.834 18.1804 38.6977 16.1601C37.5615 14.1398 35.9081 12.4582 33.9073 11.288C31.9065 10.1178 29.6303 9.50102 27.3124 9.50102C24.9945 9.50102 22.7184 10.1178 20.7176 11.288C18.7168 12.4582 17.0634 14.1398 15.9272 16.1601C14.7909 18.1804 14.2127 20.4666 14.2518 22.7842C14.291 25.1017 14.9461 27.3671 16.1499 29.3479ZM40.5032 30.5829L27.3124 52.2785L14.1217 30.5829C12.6994 28.242 11.9255 25.5647 11.8795 22.826C11.8335 20.0872 12.5171 17.3855 13.86 14.9982C15.2029 12.6108 17.1569 10.6238 19.5214 9.24092C21.8858 7.85809 24.5757 7.12928 27.3148 7.12928C30.054 7.12928 32.7438 7.85809 35.1083 9.24092C37.4727 10.6238 39.4267 12.6108 40.7696 14.9982C42.1126 17.3855 42.7961 20.0872 42.7501 22.826C42.7042 25.5647 41.9303 28.242 40.5079 30.5829H40.5032Z" fill="#4F4F4F"/>
</svg>
