<svg width="57" height="57" viewBox="0 0 57 57" fill="none" xmlns="http://www.w3.org/2000/svg">
<path d="M38.941 22.5413C39.0218 22.6259 39.0851 22.7256 39.1274 22.8347C39.1696 22.9438 39.1899 23.0601 39.1872 23.177C39.1845 23.294 39.1587 23.4092 39.1114 23.5162C39.0642 23.6232 38.9963 23.7199 38.9116 23.8006L25.8493 36.2694C25.6836 36.4275 25.4634 36.5157 25.2344 36.5157C25.0054 36.5157 24.7852 36.4275 24.6196 36.2694L18.0882 30.035C17.9202 29.8713 17.8236 29.6479 17.8193 29.4133C17.8151 29.1788 17.9036 28.952 18.0655 28.7823C18.2275 28.6126 18.4499 28.5137 18.6843 28.507C18.9188 28.5002 19.1465 28.5863 19.3179 28.7465L25.2345 34.3937L37.6819 22.5121C37.8528 22.349 38.0814 22.2605 38.3175 22.2659C38.5536 22.2714 38.7779 22.3704 38.941 22.5413V22.5413ZM50.7656 28.5C50.7656 32.9037 49.4598 37.2086 47.0132 40.8701C44.5666 44.5317 41.0892 47.3855 37.0207 49.0708C32.9522 50.756 28.4753 51.1969 24.1562 50.3378C19.8371 49.4787 15.8697 47.3581 12.7558 44.2442C9.64193 41.1303 7.52134 37.1629 6.66221 32.8438C5.80309 28.5247 6.24402 24.0478 7.92926 19.9793C9.61449 15.9108 12.4683 12.4334 16.1299 9.98681C19.7915 7.54023 24.0963 6.23438 28.5 6.23438C34.4032 6.24103 40.0627 8.58901 44.2368 12.7632C48.411 16.9374 50.759 22.5968 50.7656 28.5V28.5ZM48.9844 28.5C48.9844 24.4486 47.783 20.4881 45.5321 17.1195C43.2813 13.7509 40.0821 11.1253 36.339 9.57491C32.596 8.02449 28.4773 7.61883 24.5037 8.40923C20.5301 9.19962 16.8802 11.1506 14.0154 14.0154C11.1506 16.8802 9.19963 20.5301 8.40924 24.5037C7.61884 28.4773 8.0245 32.596 9.57492 36.339C11.1253 40.0821 13.7509 43.2813 17.1195 45.5321C20.4881 47.783 24.4486 48.9844 28.5 48.9844C33.9309 48.9782 39.1376 46.8181 42.9779 42.9779C46.8181 39.1376 48.9783 33.9309 48.9844 28.5Z" fill="#FFFBF2"/>
</svg>
