<svg width="59" height="59" viewBox="0 0 59 59" fill="none" xmlns="http://www.w3.org/2000/svg">
<path d="M38.3377 10.3365H20.6623C14.9589 10.3365 10.3365 14.9598 10.3365 20.6623V38.3377C10.3365 44.0411 14.9598 48.6635 20.6631 48.6635H38.3369C44.0402 48.6635 48.6635 44.0402 48.6635 38.3369V20.6623C48.6635 14.959 44.0402 10.3365 38.3369 10.3365H38.3377Z" fill="#FFFBF2"/>
<path d="M38.3377 10.3365H20.6623C14.9589 10.3365 10.3365 14.9598 10.3365 20.6623V38.3377C10.3365 44.0411 14.9598 48.6635 20.6631 48.6635H38.3369C44.0402 48.6635 48.6635 44.0402 48.6635 38.3369V20.6623C48.6635 14.959 44.0402 10.3365 38.3369 10.3365H38.3377Z" stroke="#828282" stroke-width="2" stroke-miterlimit="10"/>
<path d="M29.5 38.7515C34.6095 38.7515 38.7515 34.6095 38.7515 29.5C38.7515 24.3905 34.6095 20.2485 29.5 20.2485C24.3905 20.2485 20.2485 24.3905 20.2485 29.5C20.2485 34.6095 24.3905 38.7515 29.5 38.7515Z" stroke="#828282" stroke-width="2" stroke-miterlimit="10"/>
<path d="M40.7338 20.2485C41.8285 20.2485 42.716 19.361 42.716 18.2662C42.716 17.1715 41.8285 16.284 40.7338 16.284C39.639 16.284 38.7515 17.1715 38.7515 18.2662C38.7515 19.361 39.639 20.2485 40.7338 20.2485Z" fill="#828282"/>
</svg>
